<svg id="code-circle" xmlns="http://www.w3.org/2000/svg" width="20" height="20" viewBox="0 0 20 20">
  <path id="Caminho_19150" data-name="Caminho 19150" d="M330.1,220a10,10,0,1,0-10-10A10,10,0,0,0,330.1,220Zm0-1a9,9,0,1,0-9-9A9,9,0,0,0,330.1,219Z" transform="translate(-320.095 -200)" fill="#0ba1c2" fill-rule="evenodd"/>
  <path id="Caminho_19151" data-name="Caminho 19151" d="M331.909,205a.465.465,0,0,0-.431.292l-3.628,9.071a.464.464,0,1,0,.862.345l3.629-9.072a.464.464,0,0,0-.432-.636Z" transform="translate(-320.095 -200)" fill="#0ba1c2"/>
  <path id="Caminho_19152" data-name="Caminho 19152" d="M326.654,212.75a.5.5,0,0,1-.312-.109l-2.812-2.251a.5.5,0,0,1,0-.78l2.812-2.251a.5.5,0,0,1,.625.782L324.643,210l2.324,1.859a.5.5,0,0,1-.313.891Z" transform="translate(-320.095 -200)" fill="#0ba1c2"/>
  <path id="Caminho_19153" data-name="Caminho 19153" d="M333.594,212.75a.5.5,0,0,1-.313-.891L335.605,210l-2.324-1.859a.5.5,0,0,1,.625-.782l2.813,2.25a.5.5,0,0,1,0,.782l-2.813,2.25A.5.5,0,0,1,333.594,212.75Z" transform="translate(-320.095 -200)" fill="#0ba1c2"/>
</svg>
