<svg xmlns="http://www.w3.org/2000/svg" width="127.66" height="57.346" viewBox="0 0 127.66 57.346">
  <g id="Group_24830" data-name="Group 24830" transform="translate(0 -78.66)">
    <path id="Path_21179" data-name="Path 21179" d="M80.932,94.736l11.9-4.385V78.66L78.426,89.932a2.992,2.992,0,0,0-1.46,2.435c0,1.807,1.741,3.2,3.967,2.364M76.966,135.3h7.653V98.427H76.966v36.885Zm-34.725,0h7.653v-14.2H69.032v-6.958H49.893c-.138-5.774,3.757-9.256,9.118-9.256a12.706,12.706,0,0,1,7.306,2.364l4.87-5.5a19.265,19.265,0,0,0-11.971-4.038c-10.093,0-16.98,6.682-16.98,16.423V135.3ZM7.8,112.971c1.113-5.008,5.08-8.071,10.578-8.071s9.256,3.063,9.95,8.071ZM36.19,116.1c0-8.49-6.126-18.373-17.817-18.373C8.071,97.732,0,105.456,0,116.591s8.143,19.415,19.139,19.415a19.635,19.635,0,0,0,15.938-8.071l-5.36-4.385a12.923,12.923,0,0,1-10.787,5.289c-5.983,0-10.021-3.41-11.134-8.908H32.41c2.364,0,3.78-1.113,3.78-3.829" transform="translate(0 0)" fill="#f37021"/>
    <g id="Group_24829" data-name="Group 24829" transform="translate(96.63 123.166)">
      <path id="Path_21180" data-name="Path 21180" d="M217.05,190.732V178.64h5.236a4.014,4.014,0,0,1,4.078,4.042,3.875,3.875,0,0,1-1.149,2.84,4.032,4.032,0,0,1-2.929,1.166l-3.179.018v4.025Zm2.057-5.872h3.059a2.1,2.1,0,0,0,1.607-.65,2.22,2.22,0,0,0,.605-1.58,2.094,2.094,0,0,0-.6-1.536,2.155,2.155,0,0,0-1.616-.605l-3.059.018v4.354Z" transform="translate(-217.05 -178.636)" fill="#f37021"/>
      <path id="Path_21181" data-name="Path 21181" d="M238.24,190.726l4.394-11.1a1.572,1.572,0,0,1,1.46-.993h0a1.567,1.567,0,0,1,1.456.984l4.474,11.112H247.9l-1.02-2.591H241.37l-1,2.591h-2.124Zm7.947-4.39-2.106-5.267-2.075,5.267Z" transform="translate(-228.806 -178.63)" fill="#f37021"/>
      <path id="Path_21182" data-name="Path 21182" d="M265.128,178.64l3.094,5.908,3.094-5.908h2.213l-4.252,8.169v3.922h-2.057v-3.869l-4.3-8.223h2.213Z" transform="translate(-242.499 -178.636)" fill="#f37021"/>
    </g>
  </g>
</svg>
