<?xml version="1.0" encoding="utf-8"?>
<!-- Generator: Adobe Illustrator 21.1.0, SVG Export Plug-In . SVG Version: 6.00 Build 0)  -->
<svg version="1.1" id="Camada_1" xmlns="http://www.w3.org/2000/svg" xmlns:xlink="http://www.w3.org/1999/xlink" x="0px" y="0px"
	 viewBox="0 0 191 42.2" style="enable-background:new 0 0 191 42.2;" xml:space="preserve">
<style type="text/css">
	.st0{fill:#414042;}
	.st1{fill:#F37021;}
</style>
<title>Prancheta 1 cópia 2</title>
<g>
	<path class="st0" d="M53.3,36.5h8.5c1.9,0,3.6-1.4,3.9-3.3l3.1-17c0.2-1.2-0.1-2.4-0.9-3.3c-0.8-0.9-1.9-1.4-3.1-1.4h-4.2
		c-1.9,0-3.6,1.4-3.9,3.3L55,24.7c-0.2,1.2,0.1,2.4,0.9,3.3c0.8,0.9,1.9,1.4,3.1,1.4h3.9l-0.7,3.6c-0.1,0.4-0.4,0.7-0.8,0.7h-7.6
		L53.3,36.5z M65.4,15.2l-2.1,11.5h-4.2c-0.3,0-0.5-0.2-0.6-0.3c-0.1-0.1-0.2-0.3-0.2-0.7l2-10.8c0.1-0.4,0.4-0.7,0.8-0.7h3.5
		c0.3,0,0.5,0.2,0.6,0.3C65.4,14.7,65.5,14.9,65.4,15.2z"/>
	<path class="st0" d="M120,13c-0.8-0.9-1.9-1.4-3.1-1.4h-4.2c-1.9,0-3.6,1.4-3.9,3.3l-2.7,14.6h3.6l2.6-14.5
		c0.1-0.4,0.4-0.7,0.8-0.7h3.5c0.3,0,0.5,0.2,0.6,0.3c0.1,0.1,0.2,0.3,0.2,0.7l-2.5,14.2h3.6l2.4-13.2C121.1,15.1,120.7,13.9,120,13
		z"/>
	<path class="st0" d="M88.5,11.5c-1.9,0-3.6,1.4-3.9,3.3l-2.7,14.6h3.6L88.1,15c0.1-0.4,0.4-0.7,0.8-0.7h4.8l0.5-2.8H88.5z"/>
	<path class="st0" d="M81.8,13c-0.8-0.9-1.9-1.4-3.1-1.4h-4.2c-1.9,0-3.6,1.4-3.9,3.3l-1.8,9.9c-0.2,1.2,0.1,2.4,0.9,3.3
		c0.8,0.9,1.9,1.4,3.1,1.4h7l0.5-2.7H73c-0.3,0-0.5-0.2-0.6-0.3c-0.1-0.1-0.2-0.3-0.2-0.7l0.4-2.1H78c1.9,0,3.6-1.4,3.9-3.3l0.8-4.2
		C82.9,15.1,82.6,13.9,81.8,13z M79.2,15.2l-0.9,5c-0.1,0.4-0.4,0.7-0.8,0.7h-4.5l1.1-6c0.1-0.4,0.4-0.7,0.8-0.7h3.5
		c0.3,0,0.5,0.2,0.6,0.3C79.2,14.7,79.3,14.9,79.2,15.2z"/>
	<path class="st0" d="M106,13c-0.8-0.9-1.9-1.4-3.1-1.4h-4.2c-1.9,0-3.6,1.4-3.9,3.3L93,24.7c-0.2,1.2,0.1,2.4,0.9,3.3
		c0.8,0.9,1.9,1.4,3.1,1.4h7l0.5-2.7h-7.3c-0.3,0-0.5-0.2-0.6-0.3c-0.1-0.1-0.2-0.3-0.2-0.7l0.4-2.1h5.4c1.9,0,3.6-1.4,3.9-3.3
		l0.8-4.2C107,15.1,106.7,13.9,106,13z M103.4,15.2l-0.9,5c-0.1,0.4-0.4,0.7-0.8,0.7h-4.5l1.1-6c0.1-0.4,0.4-0.7,0.8-0.7h3.5
		c0.3,0,0.5,0.2,0.6,0.3C103.3,14.7,103.5,14.9,103.4,15.2z"/>
	<path class="st0" d="M151.4,13c-0.8-0.9-1.9-1.4-3.1-1.4h-5.8l-0.5,2.7h6c0.3,0,0.5,0.2,0.6,0.3c0.1,0.1,0.2,0.3,0.2,0.7l-0.4,2.1
		h-5.4c-1.9,0-3.6,1.4-3.9,3.3l-0.8,4.2c-0.2,1.2,0.1,2.4,0.9,3.3c0.8,0.9,1.9,1.4,3.1,1.4h4.2c1.9,0,3.6-1.4,3.9-3.3l1.8-9.9
		C152.5,15.1,152.2,13.9,151.4,13z M146.2,26.7h-3.5c-0.3,0-0.5-0.2-0.6-0.3c-0.1-0.1-0.2-0.3-0.2-0.7l0.9-5
		c0.1-0.4,0.4-0.7,0.8-0.7h4.5l-1.1,6C146.9,26.4,146.6,26.7,146.2,26.7z"/>
	<path class="st0" d="M126.3,15c0.1-0.4,0.4-0.7,0.9-0.7h5.4l0.5-2.8h-6.4c-2,0-3.7,1.4-4,3.4l-1.8,9.7c-0.2,1.2,0.1,2.4,0.9,3.3
		c0.8,0.9,1.9,1.5,3.1,1.5h4.9l0.5-2.7h-5.2c-0.4,0-0.6-0.2-0.7-0.3c-0.1-0.1-0.3-0.4-0.2-0.7L126.3,15z"/>
	<g>
		<polygon class="st0" points="135,13.1 132,29.4 135.6,29.4 138.6,13.1 		"/>
		<polygon class="st0" points="135.8,8.8 135.3,11.5 138.9,11.5 139.4,8.8 		"/>
	</g>
	<path class="st0" d="M165.7,13c-0.8-0.9-1.9-1.4-3.1-1.4h-4.2c-1.9,0-3.6,1.4-3.9,3.3l-2.7,14.6h3.6L158,15
		c0.1-0.4,0.4-0.7,0.8-0.7h3.5c0.3,0,0.5,0.2,0.6,0.3c0.1,0.1,0.2,0.3,0.2,0.7l-2.5,14.2h3.6l2.4-13.2
		C166.8,15.1,166.5,13.9,165.7,13z"/>
	<path class="st0" d="M179.7,13c-0.8-0.9-1.9-1.4-3.1-1.4h-4.2c-1.9,0-3.6,1.4-3.9,3.3l-1.8,9.9c-0.2,1.2,0.1,2.4,0.9,3.3
		c0.8,0.9,1.9,1.4,3.1,1.4h7l0.5-2.7h-7.3c-0.3,0-0.5-0.2-0.6-0.3c-0.1-0.1-0.2-0.3-0.2-0.7l0.4-2.1h5.4c1.9,0,3.6-1.4,3.9-3.3
		l0.8-4.2C180.7,15.1,180.4,13.9,179.7,13z M177.1,15.2l-0.9,5c-0.1,0.4-0.4,0.7-0.8,0.7h-4.5l1.1-6c0.1-0.4,0.4-0.7,0.8-0.7h3.5
		c0.3,0,0.5,0.2,0.6,0.3C177,14.7,177.1,14.9,177.1,15.2z"/>
	<path class="st0" d="M185.9,15c0.1-0.4,0.4-0.7,0.9-0.7h3.7l0.5-2.8h-4.4l0.5-2.7h-3.6l-2.4,13.3l0,0l-0.5,2.5
		c-0.2,1.2,0.1,2.4,0.9,3.3c0.8,0.9,1.9,1.5,3.1,1.5h4.2l0.5-2.7h-4.5c-0.4,0-0.6-0.2-0.7-0.3c-0.1-0.1-0.3-0.4-0.2-0.7L185.9,15z"
		/>
	<path class="st1" d="M22.4,18.1l22.3-6L46.9,0L23.3,10.2c-3.3,1.4-6.8,2.1-10.3,2.1h-2.9L7.3,19h8.3C17.9,19,20.2,18.7,22.4,18.1z"
		/>
	<path class="st1" d="M3.7,27.6H20l21.7,1.1l2.2-11.9l-22.3,4c-1.5,0.3-3,0.4-4.5,0.4H6.4L3.7,27.6z"/>
	<path class="st1" d="M16.9,29.7H2.8L0,36.3h14.9c3.9,0,7.9,0.6,11.6,1.7L39.2,42l1.6-8.6l-17.4-3.1C21.3,29.9,19.1,29.7,16.9,29.7z
		"/>
</g>
</svg>
