<svg xmlns="http://www.w3.org/2000/svg" xmlns:xlink="http://www.w3.org/1999/xlink" width="41" height="40" viewBox="0 0 41 40">
  <defs>
    <clipPath id="clip-path">
      <rect id="Rectangle_3079" data-name="Rectangle 3079" width="41" height="40" transform="translate(-0.231 -0.118)" fill="#fff"/>
    </clipPath>
  </defs>
  <g id="Group_27135" data-name="Group 27135" transform="translate(0.231 0.118)" clip-path="url(#clip-path)">
    <rect id="Rectangle_3078" data-name="Rectangle 3078" width="38.994" height="38.994" rx="7.5" transform="translate(1.014 0.274)" fill="none" stroke="#586476" stroke-width="1"/>
    <path id="Path_21422" data-name="Path 21422" d="M409.62,209.31a4.961,4.961,0,0,1-.458-.259,6.363,6.363,0,0,1-1.174-.972,5.345,5.345,0,0,1-1.323-2.662h.005a3.2,3.2,0,0,1-.053-.948h-3.989V219.5c0,.2,0,.4-.009.6,0,.025,0,.048,0,.074a.152.152,0,0,1,0,.034v.008a3.246,3.246,0,0,1-.516,1.518,3.355,3.355,0,0,1-1.187,1.1,3.4,3.4,0,0,1-1.65.424,3.3,3.3,0,1,1,0-6.6,3.4,3.4,0,0,1,1.036.161l0-3.96a7.577,7.577,0,0,0-3.029.231,7.472,7.472,0,0,0-2.679,1.4,7.691,7.691,0,0,0-1.707,2.054,6.978,6.978,0,0,0-.881,3.265,7.523,7.523,0,0,0,.428,2.581v.01a7.535,7.535,0,0,0,1.083,1.925,8.018,8.018,0,0,0,1.727,1.59v-.01l.01.01a7.609,7.609,0,0,0,4.072,1.195,7.376,7.376,0,0,0,3.021-.652,7.545,7.545,0,0,0,2.453-1.8,7.428,7.428,0,0,0,1.337-2.167,7.93,7.93,0,0,0,.482-2.477v-7.978c.048.028.693.444.693.444a9.345,9.345,0,0,0,2.376.957,14,14,0,0,0,2.439.326V209.9A5.252,5.252,0,0,1,409.62,209.31Z" transform="translate(-381.551 -195.429)" fill="#586476"/>
  </g>
</svg>
