<svg xmlns="http://www.w3.org/2000/svg" xmlns:xlink="http://www.w3.org/1999/xlink" width="40" height="40" viewBox="0 0 40 40">
  <defs>
    <clipPath id="clip-path">
      <rect id="Rectangle_3069" data-name="Rectangle 3069" width="40" height="40" transform="translate(-0.414 -0.118)" fill="#fff"/>
    </clipPath>
  </defs>
  <g id="Group_27130" data-name="Group 27130" transform="translate(0.414 0.118)" clip-path="url(#clip-path)">
    <path id="Path_21415" data-name="Path 21415" d="M212.409,207.054a3.032,3.032,0,0,1,2.224,2.043,29.706,29.706,0,0,1,0,11.122,3.036,3.036,0,0,1-2.224,2.043c-1.961.483-9.829.483-9.829.483s-7.868,0-9.829-.483a3.036,3.036,0,0,1-2.224-2.043,29.672,29.672,0,0,1,0-11.122,3.034,3.034,0,0,1,2.224-2.043c1.961-.483,9.829-.483,9.829-.483S210.447,206.571,212.409,207.054Zm-5.337,7.6-7.189-3.594v7.188Z" transform="translate(-182.827 -194.887)" fill="#586476" fill-rule="evenodd"/>
    <rect id="Rectangle_3068" data-name="Rectangle 3068" width="38.994" height="38.994" rx="7.5" transform="translate(0.254 0.274)" fill="none" stroke="#586476" stroke-width="1"/>
  </g>
</svg>
