<svg xmlns="http://www.w3.org/2000/svg" xmlns:xlink="http://www.w3.org/1999/xlink" width="41" height="40" viewBox="0 0 41 40">
  <defs>
    <clipPath id="clip-path">
      <rect id="Rectangle_3071" data-name="Rectangle 3071" width="41" height="40" transform="translate(-0.045 -0.118)" fill="#fff"/>
    </clipPath>
  </defs>
  <g id="Group_27131" data-name="Group 27131" transform="translate(0.045 0.118)" clip-path="url(#clip-path)">
    <path id="Path_21416" data-name="Path 21416" d="M242.235,206.3c2.911,0,3.255.011,4.405.063a6.042,6.042,0,0,1,2.025.376,3.609,3.609,0,0,1,2.068,2.068,6.042,6.042,0,0,1,.376,2.025c.052,1.15.063,1.494.063,4.405s-.011,3.255-.063,4.405a6.025,6.025,0,0,1-.376,2.024,3.606,3.606,0,0,1-2.068,2.069,6.042,6.042,0,0,1-2.025.376c-1.15.052-1.494.063-4.405.063s-3.255-.011-4.405-.063a6.041,6.041,0,0,1-2.025-.376,3.606,3.606,0,0,1-2.068-2.069,6.025,6.025,0,0,1-.376-2.024c-.052-1.15-.063-1.494-.063-4.405s.011-3.255.063-4.405a6.042,6.042,0,0,1,.376-2.025,3.609,3.609,0,0,1,2.068-2.068,6.042,6.042,0,0,1,2.025-.376C238.98,206.309,239.324,206.3,242.235,206.3Zm0-1.965c-2.961,0-3.332.013-4.494.067a8.006,8.006,0,0,0-2.647.506,5.58,5.58,0,0,0-3.189,3.189,8.007,8.007,0,0,0-.506,2.647c-.054,1.162-.067,1.533-.067,4.494s.013,3.332.067,4.494a8.007,8.007,0,0,0,.506,2.647,5.58,5.58,0,0,0,3.189,3.189,8.011,8.011,0,0,0,2.647.507c1.162.053,1.535.065,4.494.065s3.332-.013,4.5-.065a8,8,0,0,0,2.645-.507,5.58,5.58,0,0,0,3.189-3.189,7.971,7.971,0,0,0,.507-2.647c.053-1.162.065-1.533.065-4.494s-.013-3.332-.065-4.494a7.971,7.971,0,0,0-.507-2.647,5.58,5.58,0,0,0-3.189-3.189,8.006,8.006,0,0,0-2.647-.506C245.567,204.346,245.2,204.333,242.235,204.333Z" transform="translate(-221.8 -195.464)" fill="#586476"/>
    <path id="Path_21417" data-name="Path 21417" d="M241.148,208.55a5.6,5.6,0,1,0,5.6,5.6A5.6,5.6,0,0,0,241.148,208.55Zm0,9.232a3.634,3.634,0,1,1,3.634-3.634A3.634,3.634,0,0,1,241.148,217.782Z" transform="translate(-220.712 -194.376)" fill="#586476"/>
    <path id="Path_21418" data-name="Path 21418" d="M244.894,209.949a1.308,1.308,0,1,0-1.308-1.308A1.307,1.307,0,0,0,244.894,209.949Z" transform="translate(-218.64 -194.69)" fill="#586476"/>
    <rect id="Rectangle_3070" data-name="Rectangle 3070" width="38.994" height="38.994" rx="7.5" transform="translate(0.938 0.274)" fill="none" stroke="#586476" stroke-width="1"/>
  </g>
</svg>
