<svg xmlns="http://www.w3.org/2000/svg" width="39.994" height="39.994" viewBox="0 0 39.994 39.994">
  <g id="Group_27161" data-name="Group 27161" transform="translate(0.169 0.226)">
    <path id="Path_21421" data-name="Path 21421" d="M372.116,211.077c.009.2.013.4.013.6A13.139,13.139,0,0,1,351.9,222.742a9.394,9.394,0,0,0,1.1.063,9.274,9.274,0,0,0,5.738-1.977,4.622,4.622,0,0,1-4.316-3.208,4.619,4.619,0,0,0,2.086-.079,4.622,4.622,0,0,1-3.706-4.528c0-.021,0-.04,0-.059a4.573,4.573,0,0,0,2.092.577,4.625,4.625,0,0,1-1.43-6.167,13.112,13.112,0,0,0,9.522,4.826,4.622,4.622,0,0,1,7.872-4.213,9.265,9.265,0,0,0,2.933-1.121,4.642,4.642,0,0,1-2.031,2.555,9.238,9.238,0,0,0,2.653-.727A9.429,9.429,0,0,1,372.116,211.077Z" transform="translate(-342.26 -194.9)" fill="#586476"/>
    <rect id="Rectangle_3076" data-name="Rectangle 3076" width="38.994" height="38.994" rx="7.5" transform="translate(0.331 0.274)" fill="none" stroke="#586476" stroke-width="1"/>
  </g>
</svg>
