<svg xmlns="http://www.w3.org/2000/svg" xmlns:xlink="http://www.w3.org/1999/xlink" width="40" height="40" viewBox="0 0 40 40">
  <defs>
    <clipPath id="clip-path">
      <rect id="Rectangle_3073" data-name="Rectangle 3073" width="40" height="40" transform="translate(0.437 -0.118)" fill="#fff"/>
    </clipPath>
  </defs>
  <g id="Group_27132" data-name="Group 27132" transform="translate(-0.437 0.118)" clip-path="url(#clip-path)">
    <path id="Path_21419" data-name="Path 21419" d="M275.858,226.189h-4.9V211.443h4.9Zm-2.452-16.76h-.031a2.8,2.8,0,1,1,.031,0Zm20.125,16.76h-4.9V218.3c0-1.984-.709-3.336-2.483-3.336a2.685,2.685,0,0,0-2.515,1.794,3.351,3.351,0,0,0-.161,1.195v8.235h-4.9s.064-13.363,0-14.746h4.9v2.088a4.863,4.863,0,0,1,4.416-2.434c3.225,0,5.643,2.107,5.643,6.637Z" transform="translate(-262.174 -195.464)" fill="#586476"/>
    <rect id="Rectangle_3072" data-name="Rectangle 3072" width="38.994" height="38.994" rx="7.5" transform="translate(0.736 0.274)" fill="none" stroke="#586476" stroke-width="1"/>
  </g>
</svg>
