<svg id="square-arrow-up-right" xmlns="http://www.w3.org/2000/svg" width="20" height="20" viewBox="0 0 20 20">
  <rect id="Retângulo_3019" data-name="Retângulo 3019" width="20" height="20" fill="none"/>
  <path id="Caminho_21425" data-name="Caminho 21425" d="M16,9.1a.5.5,0,0,0-.5.5v5.6a2.3,2.3,0,0,1-2.3,2.3H4.8a2.3,2.3,0,0,1-2.3-2.3V6.8A2.3,2.3,0,0,1,4.8,4.5h5.6a.5.5,0,0,0,0-1H4.8A3.3,3.3,0,0,0,1.5,6.8v8.4a3.3,3.3,0,0,0,3.3,3.3h8.4a3.3,3.3,0,0,0,3.3-3.3V9.6a.5.5,0,0,0-.5-.5" fill="#0ba1c2"/>
  <path id="Caminho_21426" data-name="Caminho 21426" d="M18.461,1.809A.5.5,0,0,0,18,1.5H13.5a.5.5,0,0,0,0,1h3.3L8.646,10.646a.5.5,0,1,0,.707.707L17.5,3.207v3.3a.5.5,0,0,0,1,0V2.019l0-.009a.5.5,0,0,0-.037-.2" fill="#0ba1c2"/>
</svg>
